HIERARCHY
ROOT SimulationBone
{
	OFFSET 0.000000 0.000000 0.000000
	CHANNELS 6 Xposition Yposition Zposition Zrotation Yrotation Xrotation 
	JOINT Hips
	{
		OFFSET 0.000000 0.000000 0.000000
		CHANNELS 6 Xposition Yposition Zposition Zrotation Yrotation Xrotation 
		JOINT RightUpLeg
		{
			OFFSET 0.103458 1.857842 10.548504
			CHANNELS 3 Zrotation Yrotation Xrotation
			JOINT RightLeg
			{
				OFFSET 43.500000 -0.000038 0.000000
				CHANNELS 3 Zrotation Yrotation Xrotation
				JOINT RightFoot
				{
					OFFSET 42.372200 0.000008 0.000004
					CHANNELS 3 Zrotation Yrotation Xrotation
					JOINT RightToe
					{
						OFFSET 17.299992 -0.000003 -0.000013
						CHANNELS 3 Zrotation Yrotation Xrotation
						End Site
						{
							OFFSET 0.000000 0.000000 0.000000
						}
					}
				}
			}
		}
		JOINT LeftUpLeg
		{
			OFFSET 0.103456 1.857816 -10.548503
			CHANNELS 3 Zrotation Yrotation Xrotation
			JOINT LeftLeg
			{
				OFFSET 43.500042 -0.000023 0.000008
				CHANNELS 3 Zrotation Yrotation Xrotation
				JOINT LeftFoot
				{
					OFFSET 42.372265 -0.000008 0.000010
					CHANNELS 3 Zrotation Yrotation Xrotation
					JOINT LeftToe
					{
						OFFSET 17.300022 0.000005 0.000000
						CHANNELS 3 Zrotation Yrotation Xrotation
						End Site
						{
							OFFSET 0.000000 0.000000 0.000000
						}
					}
				}
			}
		}
		JOINT Spine
		{
			OFFSET 6.901966 -2.603735 -0.000002
			CHANNELS 3 Zrotation Yrotation Xrotation
			JOINT Spine1
			{
				OFFSET 12.588103 0.000016 0.000000
				CHANNELS 3 Zrotation Yrotation Xrotation
				JOINT Spine2
				{
					OFFSET 12.343200 0.000002 -0.000002
					CHANNELS 3 Zrotation Yrotation Xrotation
					JOINT Neck
					{
						OFFSET 25.832891 -0.000029 0.000006
						CHANNELS 3 Zrotation Yrotation Xrotation
						JOINT Head
						{
							OFFSET 11.766613 0.000029 -0.000002
							CHANNELS 3 Zrotation Yrotation Xrotation
							End Site
							{
								OFFSET 0.000000 0.000000 0.000000
							}
						}
					}
					JOINT RightShoulder
					{
						OFFSET 19.745903 -1.480385 6.000109
						CHANNELS 3 Zrotation Yrotation Xrotation
						JOINT RightArm
						{
							OFFSET 11.284124 -0.000024 -0.000022
							CHANNELS 3 Zrotation Yrotation Xrotation
							JOINT RightForeArm
							{
								OFFSET 33.000057 0.000000 0.000033
								CHANNELS 3 Zrotation Yrotation Xrotation
								JOINT RightHand
								{
									OFFSET 25.199997 0.000045 -0.000004
									CHANNELS 3 Zrotation Yrotation Xrotation
									End Site
									{
										OFFSET 0.000000 0.000000 0.000000
									}
								}
							}
						}
					}
					JOINT LeftShoulder
					{
						OFFSET 19.746105 -1.480396 -6.000069
						CHANNELS 3 Zrotation Yrotation Xrotation
						JOINT LeftArm
						{
							OFFSET 11.284142 -0.000028 -0.000010
							CHANNELS 3 Zrotation Yrotation Xrotation
							JOINT LeftForeArm
							{
								OFFSET 33.000084 0.000033 0.000011
								CHANNELS 3 Zrotation Yrotation Xrotation
								JOINT LeftHand
								{
									OFFSET 25.199783 0.000119 0.000426
									CHANNELS 3 Zrotation Yrotation Xrotation
									End Site
									{
										OFFSET 0.000000 0.000000 0.000000
									}
								}
							}
						}
					}
				}
			}
		}
	}
}
MOTION
Frames: 9
Frame Time: 0.016667
190.653942 0.000000 464.978481 0.000000 51.254624 0.000000 -0.348168 89.276572 1.107070 93.491965 5.380123 -178.760952 156.255522 -10.892057 167.650736 -41.432871 0.362875 -3.430209 81.189845 1.555185 -3.631322 21.454561 0.003106 0.000016 -174.445778 -0.766896 -174.993328 -17.785324 3.808654 5.460130 87.754449 -2.762229 5.950123 21.454552 -0.003095 -0.000000 8.167320 2.182334 -0.046032 6.326906 4.363940 0.026974 6.007789 4.363887 0.000560 18.852706 1.884348 18.250157 -17.657790 -15.321586 24.969384 169.680236 -74.043705 9.174601 -12.391475 58.121430 37.822229 -38.070545 -21.479110 1.856478 -1.949456 -26.770296 10.742602 -155.637426 80.745509 26.267042 -19.759722 -52.334393 -27.548603 -37.077552 18.426297 -1.605926 3.224898 20.859466 2.309674 
191.313124 0.000000 463.944572 0.000000 52.028668 0.000000 -0.430242 89.283257 1.089893 93.295382 5.228954 -178.919916 155.847869 -10.580989 166.134899 -37.662926 0.688956 -4.414634 79.869813 2.287618 -3.305016 21.454560 0.003102 0.000016 -173.257256 -0.662596 -174.990867 -16.743066 3.791387 5.791175 87.644836 -2.919272 6.322528 21.454551 -0.003093 -0.000001 8.145573 2.129123 0.019114 6.285476 4.254090 0.153577 5.966411 4.254804 0.127830 18.908814 1.699110 18.250011 -17.936674 -15.279707 25.005841 169.504312 -73.871005 9.360765 -12.092519 58.109916 37.789752 -37.447396 -21.361702 1.833109 -1.572890 -27.068419 10.534853 -156.178488 80.897279 25.715063 -20.053834 -52.025714 -26.866405 -37.176398 18.648054 -1.623047 3.065782 21.061290 2.153851 
191.951183 0.000000 462.881206 0.000000 52.785396 0.000000 -0.512549 89.188334 1.075869 93.052148 5.251062 -179.087456 155.455312 -10.322437 164.587737 -34.169044 1.007864 -5.151447 78.948597 2.840483 -3.081491 21.454559 0.003104 0.000017 -172.244922 -0.689624 -174.902208 -15.988795 3.776667 6.030863 87.707550 -3.022938 6.688242 21.454547 -0.003089 0.000001 8.110481 2.112459 0.084736 6.217504 4.217347 0.282654 5.898474 4.218846 0.257131 18.956539 1.502596 18.249550 -18.221501 -15.252487 25.048420 169.685784 -73.724890 9.179993 -11.731992 58.100324 38.022860 -36.850567 -21.351248 1.817787 -1.097207 -27.277656 10.123016 -156.428979 81.026955 25.458483 -20.435202 -51.701850 -26.322348 -37.091017 18.774634 -1.629416 3.186569 21.342561 2.413469 
192.568185 0.000000 461.787823 0.000000 53.525474 0.000000 -0.607943 89.076729 1.058945 92.805364 5.266974 -179.280417 155.215366 -10.023294 163.111310 -30.832740 1.212058 -5.319809 78.097973 3.075658 -2.570067 21.454560 0.003105 0.000017 -171.263141 -0.675704 -174.726949 -15.287290 3.771095 6.185047 87.782922 -3.074653 7.030130 21.454546 -0.003088 0.000002 8.080261 2.091070 0.145020 6.159025 4.171504 0.400998 5.840032 4.173722 0.375752 18.920939 1.361654 18.260779 -18.435963 -15.230067 25.090318 170.114179 -73.659577 8.743398 -11.426952 58.109533 38.296986 -36.271162 -21.333000 1.801629 -0.601308 -27.450500 9.587639 -156.554927 81.119725 25.329016 -20.902041 -51.354928 -25.803040 -36.901114 18.780095 -1.624804 3.354851 21.664260 2.745688 
193.162921 0.000000 460.661959 0.000000 54.249733 0.000000 -0.727761 89.040255 1.033467 92.598832 5.093579 -179.515390 155.215756 -9.573893 161.869123 -27.580866 1.197599 -4.767433 76.905855 2.953556 -1.508239 21.454559 0.003101 0.000016 -170.173962 -0.447414 -174.483489 -14.406946 3.775491 6.274784 87.692237 -3.081122 7.341967 21.454549 -0.003094 0.000000 8.070419 2.023160 0.194569 6.140513 4.033214 0.496130 5.821576 4.036005 0.471719 18.748279 1.330126 18.295844 -18.520378 -15.202047 25.127979 170.636007 -73.707778 8.207207 -11.267946 58.147049 38.384615 -35.697242 -21.191903 1.778046 -0.179823 -27.615250 9.077002 -156.795917 81.175138 25.083640 -21.410995 -51.008973 -25.217913 -36.689991 18.697103 -1.613860 3.326385 21.952991 2.815616 
193.733459 0.000000 459.500381 0.000000 54.959740 0.000000 -0.848720 89.014343 1.005718 92.415052 4.858616 -179.766822 155.245241 -9.022905 161.360760 -24.731075 1.003322 -4.127415 75.487093 2.750034 -0.592427 21.454560 0.003098 0.000015 -169.120825 -0.136901 -174.182077 -13.645427 3.758330 6.306583 87.581664 -3.043982 7.671197 21.454553 -0.003099 -0.000001 8.069829 1.934712 0.236436 6.139965 3.854245 0.575129 5.821091 3.857510 0.551801 18.487437 1.383726 18.354272 -18.535407 -15.173421 25.174977 171.115499 -73.833316 7.711909 -11.141154 58.195805 38.373327 -35.142279 -20.980108 1.751302 0.074714 -27.636437 8.775969 -157.248888 81.214535 24.623678 -21.842997 -50.729662 -24.709865 -36.448241 18.694521 -1.608182 3.234149 22.149429 2.936894 
194.279103 0.000000 458.302660 0.000000 55.657110 0.000000 -0.947044 88.924424 0.981088 92.231895 4.704069 179.999268 155.123491 -8.421813 161.929641 -22.614268 0.778791 -3.950723 74.065050 2.683191 -0.424023 21.454560 0.003103 0.000016 -168.250520 0.113948 -173.840659 -13.310584 3.697438 6.286002 87.607877 -2.965399 8.073417 21.454552 -0.003094 0.000001 8.066039 1.856464 0.273886 6.132856 3.695904 0.645739 5.814045 3.699596 0.623372 18.215865 1.478279 18.427616 -18.570426 -15.151695 25.243381 171.400536 -73.980338 7.415214 -10.901860 58.224217 38.424600 -34.619161 -20.778703 1.725929 0.123246 -27.398496 8.781792 -157.915748 81.250477 23.946991 -22.097769 -50.573972 -24.405466 -36.158190 18.895531 -1.614676 3.260023 22.219825 3.424026 
194.799620 0.000000 457.070329 0.000000 56.343455 0.000000 -1.035274 88.812317 0.954551 92.094015 4.522182 179.812879 155.039680 -7.648694 162.981236 -21.236293 0.681381 -3.719745 72.723782 2.593304 -0.222663 21.454560 0.003111 0.000018 -167.435940 0.422196 -173.484483 -13.221662 3.638087 6.231876 87.644597 -2.846687 8.582933 21.454550 -0.003088 0.000003 8.067733 1.770276 0.302487 6.136272 3.522124 0.698402 5.817538 3.526141 0.677087 18.022593 1.568161 18.488467 -18.709398 -15.139369 25.322263 171.285734 -74.079620 7.529584 -10.488246 58.171285 38.678332 -34.115848 -20.616970 1.703725 0.144183 -27.025932 8.799376 -158.548632 81.240756 23.305542 -22.201123 -50.511908 -24.156126 -35.863840 19.104094 -1.620583 3.388341 22.220221 3.933196 
195.293394 0.000000 455.803594 0.000000 57.020752 0.000000 -1.132494 88.732786 0.920695 92.036669 4.191728 179.691730 155.161870 -6.607836 163.964652 -20.577362 0.760216 -2.976566 71.580251 2.403571 0.816227 21.454556 0.003115 0.000019 -166.554427 0.917029 -173.146408 -13.167714 3.626666 6.172635 87.542000 -2.695140 9.216071 21.454548 -0.003090 0.000002 8.082077 1.654470 0.318377 6.164253 3.289733 0.724405 5.845618 3.293919 0.704492 17.970362 1.617997 18.513075 -19.001935 -15.130071 25.394172 170.675772 -74.079890 8.154153 -9.894377 57.986685 39.212105 -33.623758 -20.493815 1.684666 0.336164 -26.624956 8.530845 -158.908937 81.160875 22.941502 -22.181482 -50.513743 -23.824603 -35.621502 19.119257 -1.615413 3.576717 22.217529 4.114569 
